<svg xmlns="http://www.w3.org/2000/svg" width="11" height="16" viewBox="0 0 11 16">
    <path fill="#5C646D" fill-rule="evenodd" d="M7.8 7.429c0 1.378-.169 1.51-.54 1.796-.277.214-.832.254-1.478.296-.356.025-.764.054-1.177.118-.353.054-.69.168-1.005.315v-5.69c.716-.396 1.2-1.132 1.2-1.978C4.8 1.025 3.724 0 2.4 0 1.076 0 0 1.025 0 2.286c0 .846.484 1.582 1.2 1.978v7.472c-.716.396-1.2 1.132-1.2 1.978C0 14.975 1.076 16 2.4 16c1.324 0 2.4-1.025 2.4-2.286 0-.56-.214-1.075-.563-1.471.252-.172.522-.31.758-.347.304-.046.622-.067.96-.092.915-.061 1.954-.133 2.82-.804 1.159-.896 1.406-1.86 1.425-3.39V7.43H7.8zM2.4 1.143c.66 0 1.2.514 1.2 1.143 0 .628-.54 1.143-1.2 1.143-.66 0-1.2-.515-1.2-1.143 0-.629.54-1.143 1.2-1.143zm0 13.714c-.66 0-1.2-.514-1.2-1.143 0-.628.54-1.143 1.2-1.143.66 0 1.2.515 1.2 1.143 0 .629-.54 1.143-1.2 1.143z"/>
</svg>
